<?xml version="1.0" standalone="no"?>
<!DOCTYPE svg PUBLIC "-//W3C//DTD SVG 20010904//EN"
 "http://www.w3.org/TR/2001/REC-SVG-20010904/DTD/svg10.dtd">
<svg version="1.0" xmlns="http://www.w3.org/2000/svg"
 width="500.000000pt" height="500.000000pt" viewBox="0 0 500.000000 500.000000"
 preserveAspectRatio="xMidYMid meet">

<g transform="translate(0.000000,500.000000) scale(0.100000,-0.100000)"
fill="#000000" stroke="none">
<path d="M2240 3684 c-233 -17 -523 -67 -737 -129 -651 -185 -1115 -553 -1230
-976 -24 -89 -24 -299 0 -388 46 -169 136 -313 291 -467 404 -401 1134 -644
1936 -644 782 0 1513 237 1916 622 113 109 179 193 239 309 69 134 90 219 90
374 0 156 -15 218 -85 360 -62 126 -124 207 -244 323 -318 304 -845 519 -1466
597 -120 16 -586 28 -710 19z m723 -153 c523 -69 946 -229 1277 -481 173 -132
310 -320 355 -485 91 -334 -78 -668 -470 -929 -314 -209 -672 -332 -1171 -402
-149 -21 -573 -29 -749 -15 -662 55 -1228 273 -1556 600 -179 180 -258 339
-267 541 -7 156 30 280 124 421 222 335 718 603 1324 718 89 16 252 38 425 55
112 11 557 -3 708 -23z"/>
<path d="M2490 3352 c-36 -37 -159 -188 -275 -335 l-210 -269 -126 7 -126 7
-6 -163 c-4 -90 -10 -271 -13 -401 l-7 -238 81 -2 c45 -1 92 -2 105 -2 20 -1
22 4 25 52 l3 54 172 -6 c95 -4 236 -9 315 -12 l142 -6 0 -54 0 -54 93 0 94 0
6 152 c4 83 7 181 7 218 l0 67 -87 6 c-47 3 -90 4 -95 1 -4 -3 -8 -28 -8 -55
l0 -50 -107 3 -108 3 0 105 0 105 -100 3 -100 3 -3 -103 c-2 -57 -5 -105 -7
-107 -2 -2 -49 0 -104 4 l-101 7 0 119 0 119 75 0 75 0 0 78 c0 75 1 80 31
108 17 16 87 96 156 178 l124 148 -8 -78 c-9 -92 -9 -134 0 -156 8 -21 107
-53 138 -45 31 8 101 66 218 180 71 70 92 86 88 67 -3 -14 -9 -54 -13 -90 -16
-158 53 -222 187 -175 100 35 205 134 197 187 -5 34 -38 34 -100 -1 -61 -35
-103 -40 -112 -14 -4 9 5 99 20 199 23 150 25 186 15 198 -19 22 -80 37 -102
26 -10 -6 -53 -52 -96 -102 -108 -129 -194 -218 -210 -218 -19 0 -17 50 12
205 21 113 23 140 13 153 -14 16 -69 42 -90 42 -7 0 -42 -30 -78 -68z"/>
<path d="M1364 1821 c-9 -9 -4 -71 6 -71 6 0 10 -37 10 -90 0 -53 -4 -90 -10
-90 -5 0 -10 -16 -10 -35 l0 -35 90 0 90 0 0 35 c0 28 -4 35 -20 35 -15 0 -20
7 -20 25 0 22 4 25 35 25 95 0 144 64 111 143 -8 20 -25 41 -38 46 -24 9 -236
20 -244 12z m166 -101 c0 -20 -5 -30 -15 -30 -10 0 -15 10 -15 30 0 20 5 30
15 30 10 0 15 -10 15 -30z"/>
<path d="M1680 1787 c0 -20 5 -39 10 -42 6 -3 10 -47 10 -96 0 -58 -4 -88 -10
-84 -6 4 -10 -10 -10 -34 l0 -41 79 0 c63 0 80 3 85 16 11 28 6 54 -9 54 -10
0 -15 10 -15 31 0 24 4 30 18 27 14 -3 18 -16 20 -66 l3 -62 37 -1 c20 -1 51
-2 67 -3 28 -1 30 2 33 37 2 21 -1 37 -7 37 -6 0 -11 11 -11 24 0 14 -7 32
-16 41 -15 15 -15 17 0 34 12 14 16 33 14 66 -5 73 -25 84 -175 92 l-123 6 0
-36z m180 -77 c0 -23 -4 -30 -20 -30 -16 0 -20 7 -20 30 0 23 4 30 20 30 16 0
20 -7 20 -30z"/>
<path d="M2030 1770 c0 -22 5 -40 10 -40 6 0 10 -35 10 -84 0 -65 -3 -85 -15
-90 -9 -3 -15 -19 -15 -41 l0 -35 145 0 145 0 0 65 0 64 -35 7 c-49 9 -65 0
-65 -36 0 -23 -4 -30 -20 -30 -16 0 -20 7 -20 35 0 24 5 35 15 35 8 0 15 4 15
9 0 5 3 16 6 25 4 12 0 16 -15 16 -17 0 -21 6 -21 30 0 23 5 30 19 30 14 0 21
-8 23 -27 3 -26 7 -28 51 -31 l47 -3 0 64 0 64 -97 6 c-54 4 -117 7 -140 7
l-43 0 0 -40z"/>
<path d="M2593 1781 c-56 -26 -77 -67 -78 -153 0 -72 14 -102 69 -142 22 -17
42 -21 104 -20 100 1 122 12 122 64 0 22 5 40 11 40 6 0 9 14 7 33 l-3 32 -72
3 -73 3 0 -35 c0 -19 6 -36 13 -39 9 -3 9 -7 0 -17 -6 -7 -19 -10 -28 -6 -13
5 -15 20 -13 88 3 75 5 83 23 83 13 0 21 -8 23 -22 3 -21 9 -23 58 -23 l54 0
0 50 c0 61 -15 71 -110 77 -50 3 -75 -1 -107 -16z"/>
<path d="M2860 1755 c0 -19 5 -35 11 -35 12 0 1 -173 -12 -178 -5 -2 -9 -21
-9 -43 l0 -39 90 0 90 0 0 35 c0 24 -5 35 -14 35 -20 0 -29 16 -21 40 5 15 15
20 45 20 74 0 110 33 110 103 0 73 -48 97 -197 97 l-93 0 0 -35z m168 -72 c-4
-39 -28 -42 -28 -4 0 21 5 31 16 31 11 0 14 -8 12 -27z"/>
<path d="M3251 1780 c-52 -12 -76 -43 -76 -94 0 -54 28 -88 92 -112 23 -9 43
-20 43 -25 0 -16 -19 -19 -33 -4 -10 9 -34 15 -61 15 l-46 0 0 -44 c0 -43 0
-44 44 -55 119 -30 212 -2 230 70 13 54 -8 88 -74 122 -30 15 -56 32 -58 37
-5 13 25 13 33 0 3 -5 26 -10 51 -10 l44 0 0 39 c0 36 -3 40 -32 50 -50 15
-119 21 -157 11z"/>
<path d="M2340 1596 c0 -30 4 -34 31 -40 17 -3 49 -6 70 -6 39 0 39 0 39 40
l0 40 -70 0 -70 0 0 -34z"/>
</g>
</svg>
